. 
  
http://www.torrentday.com/        :     The Hottest Private Tracker On The Net!!!
 
http://www.torrentday.com          :     Once & For all ;)


               www . TorrentDay . Com 

(((((((((((((= Enjoy No RAR releases =))))))))))))))))))))


...................................NFO:....................................

.[img]http://www.leetleech.org/images/04718404671641981247.jpg[/img]

::::::::::::::Enjoy:Another:Release:From:T0XiC::::::::::::::

File:: The.Mechanic.2011.R5.LiNE.AC3-T0XiC-iNK
Video Source:: ....ELEKTRI4KA
Audio Source:: ....Own
Language::English
IMDB::http://www.imdb.com/title/tt0472399/

Follows an elite hit man as he teaches his trade to an apprentice who has a connection 
to one of his previous victims.

Specs::

General

Format                           : AVI
Format/Info                      : Audio Video Interleave
File size                        : 1.41 GiB
Duration                         : 1h 28mn
Overall bit rate                 : 2 278 Kbps
Writing application              : VirtualDubMod 1.5.10.2 (build 2540/release)
Writing library                  : VirtualDubMod build 2540/release

Video
ID                               : 0
Format                           : MPEG-4 Visual
Format profile                   : Advanced Simple@L5
Format settings, BVOP            : Yes
Format settings, QPel            : No
Format settings, GMC             : No warppoints
Format settings, Matrix          : Custom
Codec ID                         : XVID
Codec ID/Hint                    : XviD
Duration                         : 1h 28mn
Bit rate                         : 1 820 Kbps
Width                            : 720 pixels
Height                           : 304 pixels
Display aspect ratio             : 2.35:1
Frame rate                       : 25.000 fps
Color space                      : YUV
Chroma subsampling               : 4:2:0
Bit depth                        : 8 bits
Scan type                        : Progressive
Bits/(Pixel*Frame)               : 0.333
Stream size                      : 1.13 GiB (80%)
Writing library                  : XviD 58

Audio
ID                               : 1
Format                           : AC-3
Format/Info                      : Audio Coding 3
Mode extension                   : CM (complete main)
Codec ID                         : 2000
Duration                         : 1h 28mn
Bit rate mode                    : Constant
Bit rate                         : 448 Kbps
Channel(s)                       : 6 channels
Channel positions                : Front: L C R, Side: L R, LFE
Sampling rate                    : 48.0 KHz
Bit depth                        : 16 bits
Stream size                      : 284 MiB (20%)
Alignment                        : Split accross interleaves
Interleave, duration             : 40 ms (1.00 video frame)
Interleave, preload duration     : 500 ms


NOTES:: T0XiC-iNK is proud to present The Mechanic R5, 5.1 using our LiNE and genuine russian
surround channels. Enjoy

::Why Complain? Whats Free Is Free::

::iNK is currently a free agent looking for work, if you would like iNK's touch, give me a email at:
...digital.ink@live.com

::We are always looking for friends with unreleased DVD's, Screeners, R5's, Audio, Cams, Silvers,
...and any other good sources you may have to offer - contact us: t0xicreleases@hushmail.com

::::::::::::::::::::::::::::::::::::   Respect To   :::::::::::::::::::::::::::::::::::::
::IMAGiNE,FLAWL3SS,Hive-CM8,DiGiTALiNK,Tranz,Vik,OneTwo,Joey,bob,Unevano & our friends on utn and PA::
                       "and to all of you who support us, Thank-You"


[img]http://www.leetleech.org/images/66690988600459301734.png[/img]
[img]http://www.leetleech.org/images/03486526071288906311.png[/img]
[img]http://www.leetleech.org/images/65597594150021441924.png[/img]
[img]http://www.leetleech.org/images/90096506654730589853.png[/img]
[img]http://www.leetleech.org/images/74942062355109368661.png[/img]